<svg version="1.1" id="Layer_1" xmlns="http://www.w3.org/2000/svg" xmlns:xlink="http://www.w3.org/1999/xlink" x="0px" y="0px"
	 width="100%" viewBox="0 0 1024 1024" enable-background="new 0 0 1024 1024" xml:space="preserve">
<path fill="#3784FD" opacity="1.000000" stroke="none" 
	d="
M420.000000,1.000000 
	C482.687561,1.000000 545.375122,1.000000 608.830200,1.290596 
	C612.562439,1.713856 615.526672,1.946792 618.491943,1.961186 
	C629.222046,2.013269 639.953064,1.923487 650.682556,2.021559 
	C658.261902,2.090837 665.839172,2.377149 673.679688,2.566338 
	C674.287048,2.618448 674.632019,2.670789 675.234009,3.075298 
	C682.075684,3.942008 688.652771,4.739345 695.246521,4.916976 
	C713.524353,5.409366 731.813782,5.489535 750.089783,6.029986 
	C764.007019,6.441541 777.904663,7.517357 791.822021,7.921242 
	C811.184143,8.483134 830.467529,9.692206 849.400940,14.020151 
	C858.874023,16.185577 868.342163,18.512281 877.606445,21.422052 
	C896.193542,27.259951 912.516113,37.516945 928.217102,48.748409 
	C944.440857,60.353840 958.432312,74.355865 970.576965,90.137482 
	C979.755066,102.064240 988.456177,114.361847 994.163513,128.431747 
	C996.273071,133.632370 998.051880,138.984253 999.685852,144.357071 
	C1002.891296,154.897003 1006.972473,165.322311 1008.743164,176.114685 
	C1012.218323,197.294250 1014.906799,218.641647 1016.899719,240.014801 
	C1018.913147,261.607117 1019.984009,283.302094 1020.918091,304.975769 
	C1021.697937,323.071564 1021.664917,341.201965 1022.061218,359.315552 
	C1022.088196,360.545837 1022.697693,361.763397 1023.037476,363.456360 
	C1023.038635,398.298523 1023.038635,432.671234 1022.739990,467.316376 
	C1022.639954,471.048798 1022.838562,474.508820 1023.041992,478.312256 
	C1023.043762,479.113586 1023.040833,479.571472 1022.735352,480.315674 
	C1022.296692,481.412170 1022.053040,482.220642 1022.039978,483.032837 
	C1021.682861,505.148895 1021.349792,527.265320 1021.010742,549.381714 
	C1020.990356,550.713501 1020.999817,552.047852 1020.918091,553.376282 
	C1019.962097,568.914429 1018.991211,584.451599 1018.010132,600.422119 
	C1017.975220,602.874084 1017.954407,604.893066 1017.566040,607.027222 
	C1016.156067,611.094482 1015.113647,615.046631 1014.053833,619.426514 
	C1014.017212,621.567566 1013.997986,623.280701 1013.739075,625.162598 
	C1013.349854,625.881592 1013.200256,626.431885 1013.032227,627.394897 
	C1012.990540,629.184204 1012.967224,630.560791 1012.610718,632.014404 
	C1011.882812,633.052246 1011.488037,634.013000 1011.076965,635.315735 
	C1011.066833,636.113953 1011.072998,636.570190 1011.053772,637.351685 
	C1011.037903,638.111511 1011.047424,638.546143 1011.035522,639.346436 
	C1010.991882,640.444458 1010.969666,641.176819 1010.664551,641.969910 
	C1010.255432,642.690369 1010.129211,643.350037 1009.991699,644.331726 
	C1009.973450,645.083130 1009.966614,645.512634 1009.753418,646.067627 
	C1009.287109,646.402954 1009.115845,646.669861 1008.868774,647.344482 
	C1007.464233,651.470215 1006.224365,655.245239 1004.725159,659.222595 
	C1004.323792,660.278137 1004.181763,661.131226 1003.971863,662.326050 
	C1002.614563,665.115356 1001.325134,667.562988 999.786987,670.172974 
	C999.379517,670.890625 999.220825,671.446045 999.002441,672.366028 
	C994.620544,681.481995 990.298401,690.233337 985.660034,699.032104 
	C984.911133,699.720093 984.478455,700.360596 983.892822,701.313416 
	C979.484192,707.749634 975.228577,713.873596 970.606445,720.008240 
	C969.510803,721.008362 968.781860,721.997864 967.894165,723.285889 
	C965.490845,726.072144 963.246216,728.559937 960.682617,731.076904 
	C959.923218,731.737854 959.482666,732.369629 959.018066,733.241943 
	C958.994019,733.482483 958.955994,733.964478 958.585083,733.981812 
	C957.150940,735.330933 956.087769,736.662781 954.857178,738.290283 
	C950.002563,742.683533 945.546936,747.089905 940.579407,750.813354 
	C930.867920,758.092529 920.870544,764.990295 910.775635,772.135498 
	C910.291077,772.407471 910.107910,772.653564 909.640259,772.983826 
	C906.177551,774.680908 903.084900,776.357483 899.642578,778.027100 
	C898.508789,778.658875 897.724548,779.297668 896.558228,779.954651 
	C891.776489,781.670959 887.376831,783.369080 882.687744,785.069031 
	C881.950989,785.381958 881.503540,785.693115 880.829834,786.256836 
	C879.726562,786.698425 878.849609,786.887390 877.682861,787.074097 
	C876.938904,787.377869 876.484619,787.684082 875.763611,788.100342 
	C874.992065,788.488892 874.487244,788.767334 873.596680,789.031067 
	C871.476196,789.669861 869.741577,790.323425 867.672241,790.988464 
	C866.891724,791.025391 866.445984,791.050720 865.649658,791.058960 
	C864.513977,791.680237 863.728699,792.318542 862.539062,792.963867 
	C859.755737,793.346924 857.376770,793.722900 854.613647,794.115601 
	C849.824402,795.432922 845.419495,796.733582 840.647705,798.062622 
	C838.853394,798.419495 837.425903,798.748108 835.612671,799.052429 
	C833.492859,799.369629 831.758911,799.711182 829.652771,800.046326 
	C827.848877,800.384827 826.417114,800.729797 824.764587,801.155396 
	C824.272522,801.414978 824.077026,801.655579 823.530457,801.963135 
	C821.395020,801.997070 819.686462,802.025818 817.644836,802.037842 
	C816.538147,802.336487 815.764587,802.651855 814.573608,802.981628 
	C810.429932,803.347290 806.703552,803.698547 802.527222,804.031982 
	C798.059509,804.359375 794.041931,804.704590 789.594482,805.038696 
	C787.445557,805.053284 785.726440,805.078979 783.541504,805.074707 
	C772.341431,805.366394 761.608337,805.739136 750.872437,805.988403 
	C745.404785,806.115417 739.920288,805.809631 734.466309,806.112305 
	C731.599182,806.271362 728.781311,807.319336 725.580078,807.965942 
	C724.494995,807.969238 723.770996,807.972412 722.739380,807.689331 
	C711.024231,807.281128 699.615967,807.077942 688.210144,807.170227 
	C687.140198,807.178833 686.085327,809.051331 684.837036,810.281311 
	C684.106995,810.442139 683.563293,810.380066 682.850098,809.999268 
	C678.138916,809.781677 673.597229,809.882751 668.633606,809.993896 
	C662.626526,811.442139 656.642639,812.045288 651.535461,814.484314 
	C639.091553,820.427124 629.087402,829.688660 620.339294,840.255493 
	C616.142822,845.324341 611.779236,850.349365 608.313171,855.906799 
	C602.905151,864.578125 598.292969,873.741394 593.166626,882.593750 
	C586.791870,893.601990 580.828918,904.915527 573.608643,915.350342 
	C564.776123,928.114929 556.249817,941.257324 543.641785,950.993042 
	C535.173584,957.532166 525.773743,961.869263 515.285950,962.821655 
	C507.535431,963.525513 499.571259,965.352966 491.776672,962.057434 
	C485.723480,959.498291 479.096741,958.112122 473.361816,955.022522 
	C461.957916,948.878723 452.875122,939.915344 445.971741,928.923584 
	C432.411163,907.331970 418.880493,885.720215 405.529388,863.998840 
	C397.117065,850.312622 389.723236,835.924683 377.488373,825.010437 
	C369.870575,818.214905 361.586700,812.411194 351.222656,810.956726 
	C339.773926,809.350098 328.273621,807.801575 316.743866,807.157898 
	C301.487213,806.306213 286.178802,806.408752 270.895386,805.997620 
	C263.768890,805.805908 256.623260,805.648865 249.530823,804.993835 
	C228.717148,803.071655 207.805954,801.691467 187.172089,798.535461 
	C175.401642,796.735107 163.902939,792.410828 152.643646,788.245300 
	C143.132843,784.726562 134.370117,779.193604 124.870811,775.634338 
	C109.800804,769.987732 97.249313,760.563232 85.132706,750.527954 
	C65.819458,734.532288 49.341011,715.895142 37.569141,693.657593 
	C30.790447,680.852417 24.267403,667.660522 19.842674,653.929382 
	C15.158211,639.392273 13.098901,624.009216 9.915630,608.634033 
	C9.001872,606.839355 8.065472,605.406311 7.026494,603.661499 
	C6.936816,602.914185 6.949714,602.478638 7.221580,601.879761 
	C7.647097,601.144836 7.813646,600.573242 7.987901,599.630371 
	C8.008032,598.516724 8.020457,597.774292 8.186073,596.927246 
	C8.225314,596.550903 8.111365,596.279114 7.998950,596.003662 
	C8.000483,596.000000 7.993141,596.000671 7.883353,595.782898 
	C7.573774,595.297607 7.320345,595.098328 7.016921,594.639771 
	C7.013918,593.875671 7.007276,593.439026 7.003728,592.585693 
	C6.990997,590.780396 6.975170,589.391907 6.970076,587.662048 
	C6.986564,586.865356 6.992320,586.410034 7.158401,585.877869 
	C7.379913,585.701050 7.514758,585.541504 7.490090,585.511047 
	C7.350174,585.338318 7.172126,585.196533 6.994906,584.618652 
	C6.328866,573.668884 5.414565,563.152954 5.078903,552.618530 
	C4.499509,534.434814 4.279667,516.239563 3.930874,497.653137 
	C2.968522,494.504730 1.984262,491.752350 1.000001,489.000000 
	C1.000000,454.645782 1.000000,420.291534 1.286845,385.187195 
	C2.034172,379.936432 2.494654,375.435760 3.355484,370.863464 
	C4.162832,369.130035 4.887507,367.476288 4.929596,365.805328 
	C5.661609,336.743927 6.196728,307.677155 7.033340,278.619019 
	C7.357271,267.367889 8.272895,256.131958 9.014100,244.895386 
	C9.460304,238.131012 9.778532,231.335876 10.702071,224.629990 
	C12.594069,210.892044 14.613190,197.161713 17.049526,183.512070 
	C18.663733,174.468460 20.293287,165.287231 23.341936,156.672226 
	C28.158091,143.062515 34.167469,129.874847 39.678577,116.511353 
	C44.917656,103.807480 52.830162,92.633026 62.158852,82.916565 
	C72.871750,71.758354 85.014641,61.951595 96.735367,51.787254 
	C117.054886,34.165909 141.279800,24.288700 166.835022,17.295237 
	C171.088470,16.131237 175.740204,16.510479 180.116989,15.691072 
	C189.321320,13.967868 198.385895,11.220367 207.652512,10.171923 
	C221.947586,8.554543 236.354462,7.832712 250.731537,7.057508 
	C266.958588,6.182554 283.200043,5.477225 299.444489,5.046444 
	C319.882996,4.504441 340.331177,4.333839 360.773834,3.933675 
	C362.169373,3.906358 363.553589,3.299839 365.415222,2.955604 
	C382.866791,2.625506 399.846497,2.319011 416.824615,1.940119 
	C417.889557,1.916353 418.941833,1.326492 420.000000,1.000000 
M528.223206,452.973663 
	C535.090271,448.864716 542.697998,445.615112 548.670410,440.468018 
	C561.148254,429.714355 565.756897,415.002655 564.703491,398.978882 
	C564.290649,392.700775 564.564758,385.732147 560.185364,380.086029 
	C556.052917,374.758179 552.960266,368.323853 547.984680,364.026917 
	C541.947876,358.813477 534.891602,353.508942 527.411865,351.557526 
	C517.917480,349.080444 507.865631,349.235016 497.667542,352.540771 
	C485.147064,356.599335 475.909241,364.067993 467.915405,373.778290 
	C465.952118,376.163177 464.052734,378.909424 463.155151,381.808777 
	C459.473053,393.702515 458.594360,405.696411 461.941132,417.976837 
	C465.012024,429.245117 471.448853,438.946960 480.389496,445.032440 
	C494.259521,454.473267 510.457764,457.785248 528.223206,452.973663 
M756.515930,437.961639 
	C757.734009,436.390625 758.862732,434.739777 760.184448,433.261475 
	C769.471924,422.874023 769.262634,409.790131 769.557739,397.242188 
	C769.706970,390.899750 767.266357,384.586517 764.031311,378.484222 
	C755.672180,362.716064 742.626404,354.214233 725.875122,349.861969 
	C715.584229,347.188171 706.579041,350.907074 697.350159,354.057617 
	C684.465576,358.456085 675.369446,367.907288 669.844055,379.446808 
	C664.290710,391.044769 663.004333,403.958679 666.728760,417.084625 
	C671.017334,432.198944 680.183411,442.924255 693.810425,449.998383 
	C701.888367,454.191833 710.621521,454.446350 719.718933,454.239746 
	C734.250061,453.909790 746.380310,449.411621 756.515930,437.961639 
M255.076279,400.788879 
	C254.906647,416.285980 259.833588,429.777771 271.146179,440.584351 
	C282.264221,451.205048 295.481873,455.898956 310.977051,455.086029 
	C326.300873,454.282135 338.092133,447.031921 347.851990,436.074341 
	C356.941589,425.869263 359.280914,413.374207 359.090912,399.975922 
	C358.867950,384.252838 352.657257,371.568970 340.418732,362.240265 
	C334.384766,357.640900 327.428864,353.232971 320.219086,351.446045 
	C310.719208,349.091492 300.742950,349.021149 290.883667,352.696442 
	C277.849701,357.555145 266.671783,364.382324 261.191711,377.563965 
	C258.260468,384.614807 257.147949,392.421814 255.076279,400.788879 
z"/>
<path fill="#FEFFFF" opacity="1.000000" stroke="none" 
	d="
M683.019653,810.317993 
	C683.563293,810.380066 684.106995,810.442139 685.239380,810.361572 
	C686.908020,810.095703 687.988037,809.972473 689.301147,810.032715 
	C690.634949,810.026184 691.735718,809.836060 693.291138,809.750366 
	C699.442627,809.590759 705.139404,809.326843 711.080811,809.223389 
	C712.238892,809.266357 713.152466,809.148926 714.382935,809.111572 
	C715.128357,809.132874 715.556824,809.074158 716.344727,809.200195 
	C725.490234,809.386780 734.277405,809.463623 743.062073,809.351257 
	C746.298462,809.309875 749.529175,808.822083 753.221008,808.662231 
	C759.471741,808.485352 765.263916,808.184204 771.328857,808.088806 
	C773.340271,808.070679 775.079041,807.846741 777.259949,807.728638 
	C779.806213,807.683289 781.910339,807.532166 784.456909,807.518921 
	C798.695312,806.252686 812.521057,805.083313 826.273621,803.337280 
	C832.400635,802.559326 838.380188,800.620422 844.793396,799.223267 
	C846.116150,799.006531 847.072205,798.775024 848.414062,798.625793 
	C851.380310,798.082153 853.978455,797.520996 856.538513,796.820679 
	C892.428223,787.003357 924.900635,770.836487 951.996887,744.906006 
	C993.026306,705.641541 1014.404175,657.029541 1020.240479,600.857178 
	C1020.369141,600.130188 1020.280884,599.543030 1020.180664,598.577148 
	C1020.266296,597.195435 1020.363892,596.192505 1020.732422,595.071899 
	C1021.000488,593.965637 1020.997681,592.977112 1021.014526,591.559692 
	C1021.216492,589.155396 1021.398804,587.180054 1021.858032,585.033325 
	C1022.078003,583.239136 1022.021057,581.616333 1021.967224,579.624268 
	C1022.051147,578.521606 1022.132019,577.788147 1022.459595,576.758972 
	C1022.790955,572.972412 1022.875549,569.481628 1022.956177,565.527222 
	C1023.096680,560.752075 1023.241150,556.440369 1023.655640,552.108948 
	C1024.283691,552.059448 1024.641846,552.029724 1025.000000,552.000000 
	C1025.000000,709.632935 1025.000000,867.265869 1025.000000,1024.949463 
	C683.773438,1024.949463 342.546844,1024.949463 1.000000,1024.949463 
	C1.000000,865.307617 1.000000,705.615051 1.271302,545.681641 
	C1.962181,546.971802 2.381757,548.502747 2.850200,550.478333 
	C2.978764,553.607788 3.058464,556.292603 2.869421,559.161072 
	C2.950818,560.912903 3.300956,562.481140 3.729530,564.508545 
	C3.893050,566.964478 3.911209,568.966797 4.075899,570.957031 
	C4.550156,576.688293 5.083562,582.414551 5.579186,588.550720 
	C5.747935,590.305969 5.931232,591.653259 6.046041,593.406372 
	C6.217410,595.911621 6.457268,598.011108 6.660433,600.441284 
	C6.736697,601.195679 6.849653,601.619385 6.962611,602.043091 
	C6.949714,602.478638 6.936816,602.914185 6.932199,604.023376 
	C7.233337,606.131775 7.526194,607.566589 7.776797,609.459900 
	C8.858133,617.648071 9.526011,625.476685 11.178812,633.091431 
	C22.430202,684.928467 49.059555,727.302979 91.186157,759.423096 
	C121.964027,782.890076 157.483200,796.125671 195.385696,802.365417 
	C215.191132,805.625916 235.356339,807.069580 255.422562,808.286987 
	C282.502502,809.929749 309.655029,810.338623 336.754242,811.714111 
	C353.691986,812.573853 368.757385,818.478821 379.766144,831.919678 
	C386.491180,840.130371 392.787964,848.789795 398.401062,857.793762 
	C411.778198,879.252197 424.412201,901.173828 437.784637,922.635254 
	C446.091064,935.966309 455.772522,948.098389 469.550842,956.605103 
	C493.515564,971.400818 525.468689,969.918091 547.177979,952.186646 
	C562.016479,940.066956 571.818726,923.942566 581.589539,907.849854 
	C592.644592,889.642029 603.124756,871.061707 614.782043,853.250122 
	C624.787109,837.962952 636.884460,824.143494 654.399963,817.122681 
	C662.446655,813.897278 671.345703,812.797974 680.263062,810.805725 
	C681.451843,810.690613 682.235718,810.504333 683.019653,810.317993 
z"/>
<path fill="#FCFEFE" opacity="1.000000" stroke="none" 
	d="
M1.000000,328.000000 
	C1.000000,219.073685 1.000000,110.147362 1.000000,1.000000 
	C106.687996,1.000000 212.376144,1.000000 318.539062,1.269839 
	C318.941895,1.892061 318.869995,2.244443 318.345184,2.620931 
	C310.264618,2.764943 302.636932,2.884851 294.745911,2.751400 
	C292.654663,2.729263 290.826813,2.960483 288.565796,3.184657 
	C283.790588,3.391008 279.448517,3.604406 274.921448,3.631719 
	C274.137817,3.603834 273.539185,3.762037 272.507507,3.931893 
	C270.051636,3.981738 268.028809,4.019929 265.773224,3.810343 
	C263.921875,3.829071 262.303314,4.095576 260.333862,4.409046 
	C259.038422,4.472748 258.093872,4.489485 256.807495,4.329434 
	C253.938553,4.357087 251.411453,4.561529 248.477936,4.795619 
	C246.714157,4.892755 245.356827,4.960244 243.820633,4.798580 
	C242.658661,4.833773 241.675537,5.098117 240.271942,5.437904 
	C237.248077,5.650944 234.644730,5.788542 231.802689,5.708296 
	C230.385010,5.672937 229.206024,5.855424 227.569672,6.046045 
	C216.862320,7.104735 206.592468,7.992477 196.366501,9.239967 
	C175.505463,11.784853 155.101883,16.260540 135.689056,24.562250 
	C104.592438,37.860413 79.159828,58.872665 57.369976,84.167664 
	C34.685837,110.500793 22.554893,142.189926 15.303805,175.738800 
	C9.389902,203.100891 7.052062,230.969101 5.342118,259.109283 
	C5.077961,260.886566 5.063207,262.451935 5.061837,264.468628 
	C4.739195,270.954132 4.403167,276.988312 3.884031,283.090240 
	C3.635001,283.268921 3.487374,283.440521 3.517026,283.480408 
	C3.660105,283.673004 3.850915,283.830170 4.038344,284.397919 
	C4.024220,285.857330 3.996549,286.918732 3.799214,288.066010 
	C3.571555,288.263702 3.435779,288.420380 3.469683,288.479156 
	C3.587346,288.683136 3.763930,288.853119 3.929691,289.475403 
	C3.811665,292.243866 3.682060,294.572937 3.423543,297.022156 
	C3.256805,297.253387 3.164162,297.381317 3.192137,297.472137 
	C3.258281,297.686920 3.381764,297.884064 3.521615,298.434448 
	C3.426496,300.180084 3.291830,301.579620 2.914924,303.112610 
	C2.804710,303.834137 2.936737,304.422180 3.072405,305.466492 
	C2.974767,309.256500 2.873487,312.590271 2.623326,316.036438 
	C2.427379,316.263580 2.311136,316.410187 2.346498,316.486908 
	C2.444847,316.700287 2.606166,316.884674 2.772122,317.530060 
	C2.713692,321.286163 2.625764,324.592743 2.280418,327.903107 
	C1.681999,327.937958 1.340999,327.968964 1.000000,328.000000 
z"/>
<path fill="#FCFEFE" opacity="1.000000" stroke="none" 
	d="
M732.000000,0.999999 
	C829.595398,1.000000 927.190857,1.000000 1025.000000,1.000000 
	C1025.000000,103.020798 1025.000000,205.041733 1024.747192,307.533325 
	C1024.158813,307.980713 1023.823303,307.957458 1023.429077,307.471863 
	C1023.239929,300.676849 1023.109497,294.344177 1023.266968,287.729004 
	C1023.151367,284.253357 1022.747742,281.060211 1022.265137,277.428497 
	C1022.097656,273.997589 1022.009155,271.005280 1022.180908,267.821716 
	C1022.189575,266.364594 1021.937988,265.098663 1021.583252,263.445740 
	C1021.436462,261.723053 1021.392822,260.387390 1021.479614,258.931458 
	C1021.492249,258.522125 1021.374512,258.233063 1021.193298,257.553711 
	C1021.092468,256.110382 1021.055115,255.057343 1021.301514,253.739426 
	C1021.020203,247.993210 1020.455139,242.511871 1019.836182,236.591766 
	C1018.759888,226.396362 1017.802856,216.632370 1016.702393,206.884552 
	C1013.893982,182.008484 1009.076965,157.515533 999.688232,134.261749 
	C980.983398,87.933678 948.009460,54.342674 904.823303,30.211111 
	C875.058044,13.578899 842.504333,7.894301 808.799438,5.711659 
	C807.373047,5.535709 806.157043,5.607750 804.632080,5.692763 
	C803.913635,5.663948 803.504150,5.622159 802.859253,5.324918 
	C800.414368,5.033900 798.204956,4.998334 795.528931,4.971598 
	C790.112183,4.741839 785.162048,4.503250 780.051697,4.033905 
	C778.923462,3.895457 777.955383,3.987767 776.519531,4.078427 
	C769.102905,3.856628 762.154053,3.636478 755.013306,3.128129 
	C752.542847,2.909763 750.264343,2.979598 747.520142,3.064268 
	C742.077637,2.959328 737.100769,2.839554 732.099060,2.432863 
	C732.049438,1.763963 732.024719,1.381981 732.000000,0.999999 
z"/>
<path fill="#629FF9" opacity="1.000000" stroke="none" 
	d="
M1023.037842,480.029388 
	C1023.040833,479.571472 1023.043762,479.113586 1023.039795,477.857788 
	C1023.034790,473.721222 1023.036743,470.382599 1023.038696,467.043945 
	C1023.038635,432.671234 1023.038635,398.298523 1023.056396,363.156128 
	C1023.389832,361.906250 1023.705444,361.426025 1024.265869,360.957336 
	C1024.510742,360.968872 1025.000000,361.000000 1025.000000,361.000000 
	C1025.000000,408.687561 1025.000000,456.375122 1024.771729,504.563232 
	C1024.543457,505.063782 1024.082642,505.059845 1023.776978,504.762817 
	C1023.326782,496.320343 1023.182312,488.174866 1023.037842,480.029388 
z"/>
<path fill="#5287DD" opacity="1.000000" stroke="none" 
	d="
M3.138160,558.977478 
	C3.058464,556.292603 2.978764,553.607788 2.946077,550.029297 
	C2.328726,544.423767 1.664363,539.711853 1.000000,535.000000 
	C1.000000,529.311951 1.000000,523.623962 1.396255,517.376892 
	C2.194793,515.029175 2.790473,513.258667 2.961110,511.448120 
	C3.381133,506.991608 3.605762,502.516693 3.908967,498.049164 
	C4.279667,516.239563 4.499509,534.434814 5.078903,552.618530 
	C5.414565,563.152954 6.328866,573.668884 6.992365,584.846069 
	C7.001965,585.498901 6.998075,585.954712 6.998075,585.954712 
	C6.992320,586.410034 6.986564,586.865356 6.628113,587.689087 
	C6.048189,588.085938 5.820961,588.114380 5.593733,588.142822 
	C5.083562,582.414551 4.550156,576.688293 4.075899,570.957031 
	C3.911209,568.966797 3.893050,566.964478 3.847280,564.139465 
	C3.637115,561.866699 3.387636,560.422058 3.138160,558.977478 
z"/>
<path fill="#B5D7FB" opacity="1.000000" stroke="none" 
	d="
M731.531372,0.999999 
	C732.024719,1.381981 732.049438,1.763963 731.718140,2.549285 
	C712.567078,2.876125 693.772034,2.799626 674.977051,2.723129 
	C674.632019,2.670789 674.287048,2.618448 673.590820,2.313646 
	C673.159729,1.707460 673.079834,1.353734 673.000000,1.000004 
	C692.354248,1.000000 711.708435,1.000000 731.531372,0.999999 
z"/>
<path fill="#629FF9" opacity="1.000000" stroke="none" 
	d="
M419.531342,1.000000 
	C418.941833,1.326492 417.889557,1.916353 416.824615,1.940119 
	C399.846497,2.319011 382.866791,2.625506 365.052002,2.956522 
	C363.125000,2.623418 362.033417,2.282313 360.954468,1.705790 
	C360.967102,1.470371 361.000000,1.000000 361.000000,1.000000 
	C380.354218,1.000000 399.708466,1.000000 419.531342,1.000000 
z"/>
<path fill="#629FF9" opacity="1.000000" stroke="none" 
	d="
M672.531311,1.000004 
	C673.079834,1.353734 673.159729,1.707460 673.328491,2.313878 
	C665.839172,2.377149 658.261902,2.090837 650.682556,2.021559 
	C639.953064,1.923487 629.222046,2.013269 618.491943,1.961186 
	C615.526672,1.946792 612.562439,1.713856 609.298828,1.290596 
	C630.020874,1.000000 651.041809,1.000000 672.531311,1.000004 
z"/>
<path fill="#9EC6F7" opacity="1.000000" stroke="none" 
	d="
M360.531342,1.000000 
	C361.000000,1.000000 360.967102,1.470371 360.516388,1.715773 
	C358.242615,2.047792 356.420197,2.190159 354.596344,2.211989 
	C342.663757,2.354815 330.730896,2.471561 318.798096,2.596827 
	C318.869995,2.244443 318.941895,1.892061 319.006897,1.269839 
	C332.687561,1.000000 346.375122,1.000000 360.531342,1.000000 
z"/>
<path fill="#B5D7FB" opacity="1.000000" stroke="none" 
	d="
M1024.082642,505.059845 
	C1024.082642,505.059845 1024.543457,505.063782 1024.771729,505.031891 
	C1025.000000,520.354248 1025.000000,535.708435 1025.000000,551.531372 
	C1024.641846,552.029724 1024.283691,552.059448 1023.525757,551.645691 
	C1023.444885,535.821411 1023.763794,520.440613 1024.082642,505.059845 
z"/>
<path fill="#629FF9" opacity="1.000000" stroke="none" 
	d="
M2.955136,370.935089 
	C2.494654,375.435760 2.034172,379.936432 1.286845,384.718567 
	C1.000000,373.979095 1.000000,362.958221 1.271526,351.422363 
	C1.899178,350.817261 2.255304,350.727142 2.730570,351.125854 
	C2.884852,358.054840 2.919994,364.494965 2.955136,370.935089 
z"/>
<path fill="#5388DD" opacity="1.000000" stroke="none" 
	d="
M3.930874,497.653137 
	C3.605762,502.516693 3.381133,506.991608 2.961110,511.448120 
	C2.790473,513.258667 2.194793,515.029175 1.396255,516.908936 
	C1.000000,507.979095 1.000000,498.958221 1.000001,489.468658 
	C1.984262,491.752350 2.968522,494.504730 3.930874,497.653137 
z"/>
<path fill="#BFDDFA" opacity="1.000000" stroke="none" 
	d="
M1023.487793,307.934204 
	C1023.823303,307.957458 1024.158813,307.980713 1024.747192,308.001984 
	C1025.000000,317.354218 1025.000000,326.708466 1024.764771,336.513977 
	C1024.529541,336.965271 1024.057861,336.967804 1024.016479,336.540161 
	C1023.812683,326.719727 1023.650208,317.326965 1023.487793,307.934204 
z"/>
<path fill="#B5D7FB" opacity="1.000000" stroke="none" 
	d="
M2.611433,350.637024 
	C2.255304,350.727142 1.899178,350.817261 1.271526,350.953674 
	C1.000000,343.645752 1.000000,336.291504 1.000000,328.468628 
	C1.340999,327.968964 1.681999,327.937958 2.409381,328.362244 
	C2.734320,336.090729 2.672878,343.363892 2.611433,350.637024 
z"/>
<path fill="#9EC6F7" opacity="1.000000" stroke="none" 
	d="
M1024.057861,336.967804 
	C1024.057861,336.967804 1024.529541,336.965271 1024.764771,336.982635 
	C1025.000000,344.687592 1025.000000,352.375153 1025.000000,360.531372 
	C1025.000000,361.000000 1024.510742,360.968872 1024.265747,360.494873 
	C1024.033203,352.336487 1024.045532,344.652161 1024.057861,336.967804 
z"/>
<path fill="#BFDDFA" opacity="1.000000" stroke="none" 
	d="
M1.000000,535.454102 
	C1.664363,539.711853 2.328726,544.423767 2.897212,549.584717 
	C2.381757,548.502747 1.962181,546.971802 1.271302,545.220398 
	C1.000000,541.969421 1.000000,538.938782 1.000000,535.454102 
z"/>
<path fill="#5287DD" opacity="1.000000" stroke="none" 
	d="
M679.858215,810.734497 
	C671.345703,812.797974 662.446655,813.897278 654.399963,817.122681 
	C636.884460,824.143494 624.787109,837.962952 614.782043,853.250122 
	C603.124756,871.061707 592.644592,889.642029 581.589539,907.849854 
	C571.818726,923.942566 562.016479,940.066956 547.177979,952.186646 
	C525.468689,969.918091 493.515564,971.400818 469.550842,956.605103 
	C455.772522,948.098389 446.091064,935.966309 437.784637,922.635254 
	C424.412201,901.173828 411.778198,879.252197 398.401062,857.793762 
	C392.787964,848.789795 386.491180,840.130371 379.766144,831.919678 
	C368.757385,818.478821 353.691986,812.573853 336.754242,811.714111 
	C309.655029,810.338623 282.502502,809.929749 255.422562,808.286987 
	C235.356339,807.069580 215.191132,805.625916 195.385696,802.365417 
	C157.483200,796.125671 121.964027,782.890076 91.186157,759.423096 
	C49.059555,727.302979 22.430202,684.928467 11.178812,633.091431 
	C9.526011,625.476685 8.858133,617.648071 8.123836,609.459229 
	C8.973081,608.998535 9.433035,608.997070 9.892987,608.995605 
	C13.098901,624.009216 15.158211,639.392273 19.842674,653.929382 
	C24.267403,667.660522 30.790447,680.852417 37.569141,693.657593 
	C49.341011,715.895142 65.819458,734.532288 85.132706,750.527954 
	C97.249313,760.563232 109.800804,769.987732 124.870811,775.634338 
	C134.370117,779.193604 143.132843,784.726562 152.643646,788.245300 
	C163.902939,792.410828 175.401642,796.735107 187.172089,798.535461 
	C207.805954,801.691467 228.717148,803.071655 249.530823,804.993835 
	C256.623260,805.648865 263.768890,805.805908 270.895386,805.997620 
	C286.178802,806.408752 301.487213,806.306213 316.743866,807.157898 
	C328.273621,807.801575 339.773926,809.350098 351.222656,810.956726 
	C361.586700,812.411194 369.870575,818.214905 377.488373,825.010437 
	C389.723236,835.924683 397.117065,850.312622 405.529388,863.998840 
	C418.880493,885.720215 432.411163,907.331970 445.971741,928.923584 
	C452.875122,939.915344 461.957916,948.878723 473.361816,955.022522 
	C479.096741,958.112122 485.723480,959.498291 491.776672,962.057434 
	C499.571259,965.352966 507.535431,963.525513 515.285950,962.821655 
	C525.773743,961.869263 535.173584,957.532166 543.641785,950.993042 
	C556.249817,941.257324 564.776123,928.114929 573.608643,915.350342 
	C580.828918,904.915527 586.791870,893.601990 593.166626,882.593750 
	C598.292969,873.741394 602.905151,864.578125 608.313171,855.906799 
	C611.779236,850.349365 616.142822,845.324341 620.339294,840.255493 
	C629.087402,829.688660 639.091553,820.427124 651.535461,814.484314 
	C656.642639,812.045288 662.626526,811.442139 669.077087,810.000854 
	C673.247803,810.243347 676.552979,810.488953 679.858215,810.734497 
z"/>
<path fill="#4F86DE" opacity="1.000000" stroke="none" 
	d="
M2.730573,351.125885 
	C2.672878,343.363892 2.734320,336.090729 2.666800,328.358429 
	C2.625764,324.592743 2.713692,321.286163 2.853306,317.242676 
	C2.860731,316.311859 2.816469,316.117950 2.772207,315.924042 
	C2.873487,312.590271 2.974767,309.256500 3.271018,305.316589 
	C3.363047,304.133362 3.260104,303.556244 3.157163,302.979156 
	C3.291830,301.579620 3.426496,300.180084 3.637192,298.143372 
	C3.659633,297.304840 3.606045,297.103424 3.552456,296.902008 
	C3.682060,294.572937 3.811665,292.243866 4.012161,289.214661 
	C4.044995,288.336426 4.006937,288.158264 3.968879,287.980103 
	C3.996549,286.918732 4.024220,285.857330 4.109808,284.156158 
	C4.134198,283.351746 4.100669,283.187134 4.067140,283.022491 
	C4.403167,276.988312 4.739195,270.954132 5.313098,264.186584 
	C5.564490,261.934631 5.578005,260.415985 5.591520,258.897369 
	C7.052062,230.969101 9.389902,203.100891 15.303805,175.738800 
	C22.554893,142.189926 34.685837,110.500793 57.369976,84.167664 
	C79.159828,58.872665 104.592438,37.860413 135.689056,24.562250 
	C155.101883,16.260540 175.505463,11.784853 196.366501,9.239967 
	C206.592468,7.992477 216.862320,7.104735 227.968994,6.109964 
	C229.897568,6.085880 230.969467,6.006011 232.041367,5.926141 
	C234.644730,5.788542 237.248077,5.650944 240.604431,5.606450 
	C242.238113,5.475613 243.118805,5.251673 243.999496,5.027732 
	C245.356827,4.960244 246.714157,4.892755 248.929810,4.902629 
	C252.241867,4.822068 254.695602,4.664145 257.149323,4.506222 
	C258.093872,4.489485 259.038422,4.472748 260.711884,4.585707 
	C262.962524,4.496308 264.484253,4.277214 266.005981,4.058120 
	C268.028809,4.019929 270.051636,3.981738 272.869202,4.012219 
	C274.144775,3.993196 274.625580,3.905500 275.106415,3.817804 
	C279.448517,3.604406 283.790588,3.391008 288.843262,3.409072 
	C291.372345,3.428608 293.190796,3.216682 295.009277,3.004757 
	C302.636932,2.884851 310.264618,2.764943 318.345184,2.620932 
	C330.730896,2.471561 342.663757,2.354815 354.596344,2.211989 
	C356.420197,2.190159 358.242615,2.047792 360.503754,1.951191 
	C362.033417,2.282313 363.125000,2.623418 364.579834,2.963605 
	C363.553589,3.299839 362.169373,3.906358 360.773834,3.933675 
	C340.331177,4.333839 319.882996,4.504441 299.444489,5.046444 
	C283.200043,5.477225 266.958588,6.182554 250.731537,7.057508 
	C236.354462,7.832712 221.947586,8.554543 207.652512,10.171923 
	C198.385895,11.220367 189.321320,13.967868 180.116989,15.691072 
	C175.740204,16.510479 171.088470,16.131237 166.835022,17.295237 
	C141.279800,24.288700 117.054886,34.165909 96.735367,51.787254 
	C85.014641,61.951595 72.871750,71.758354 62.158852,82.916565 
	C52.830162,92.633026 44.917656,103.807480 39.678577,116.511353 
	C34.167469,129.874847 28.158091,143.062515 23.341936,156.672226 
	C20.293287,165.287231 18.663733,174.468460 17.049526,183.512070 
	C14.613190,197.161713 12.594069,210.892044 10.702071,224.629990 
	C9.778532,231.335876 9.460304,238.131012 9.014100,244.895386 
	C8.272895,256.131958 7.357271,267.367889 7.033340,278.619019 
	C6.196728,307.677155 5.661609,336.743927 4.929596,365.805328 
	C4.887507,367.476288 4.162832,369.130035 3.355483,370.863464 
	C2.919994,364.494965 2.884852,358.054840 2.730573,351.125885 
z"/>
<path fill="#4F86DD" opacity="1.000000" stroke="none" 
	d="
M1024.016479,336.540161 
	C1024.045532,344.652161 1024.033203,352.336487 1024.020996,360.483337 
	C1023.705444,361.426025 1023.389832,361.906250 1023.055298,362.686646 
	C1022.697693,361.763397 1022.088196,360.545837 1022.061218,359.315552 
	C1021.664917,341.201965 1021.697937,323.071564 1020.918091,304.975769 
	C1019.984009,283.302094 1018.913147,261.607117 1016.899719,240.014801 
	C1014.906799,218.641647 1012.218323,197.294250 1008.743164,176.114685 
	C1006.972473,165.322311 1002.891296,154.897003 999.685852,144.357071 
	C998.051880,138.984253 996.273071,133.632370 994.163513,128.431747 
	C988.456177,114.361847 979.755066,102.064240 970.576965,90.137482 
	C958.432312,74.355865 944.440857,60.353840 928.217102,48.748409 
	C912.516113,37.516945 896.193542,27.259951 877.606445,21.422052 
	C868.342163,18.512281 858.874023,16.185577 849.400940,14.020151 
	C830.467529,9.692206 811.184143,8.483134 791.822021,7.921242 
	C777.904663,7.517357 764.007019,6.441541 750.089783,6.029986 
	C731.813782,5.489535 713.524353,5.409366 695.246521,4.916976 
	C688.652771,4.739345 682.075684,3.942008 675.234009,3.075297 
	C693.772034,2.799626 712.567078,2.876125 731.743042,2.836201 
	C737.100769,2.839554 742.077637,2.959328 747.832520,3.307235 
	C750.808777,3.495687 753.007019,3.456008 755.205261,3.416329 
	C762.154053,3.636478 769.102905,3.856628 776.781860,4.309593 
	C778.412048,4.449827 779.311951,4.357244 780.211914,4.264662 
	C785.162048,4.503250 790.112183,4.741839 795.815308,5.243431 
	C798.743774,5.531079 800.919250,5.555723 803.094727,5.580368 
	C803.504150,5.622159 803.913635,5.663948 805.020264,5.838737 
	C806.815002,5.967710 807.912476,5.963680 809.009949,5.959650 
	C842.504333,7.894301 875.058044,13.578899 904.823303,30.211111 
	C948.009460,54.342674 980.983398,87.933678 999.688232,134.261749 
	C1009.076965,157.515533 1013.893982,182.008484 1016.702393,206.884552 
	C1017.802856,216.632370 1018.759888,226.396362 1019.771362,237.053665 
	C1020.179504,243.304337 1020.598633,248.654312 1021.017761,254.004303 
	C1021.055115,255.057343 1021.092468,256.110382 1021.123718,257.838470 
	C1021.194824,258.692902 1021.271973,258.872284 1021.349121,259.051697 
	C1021.392822,260.387390 1021.436462,261.723053 1021.409302,263.782776 
	C1021.532532,265.675507 1021.726562,266.844238 1021.920654,268.012939 
	C1022.009155,271.005280 1022.097656,273.997589 1022.136719,277.869781 
	C1022.384521,281.836914 1022.681763,284.924225 1022.979004,288.011505 
	C1023.109497,294.344177 1023.239929,300.676849 1023.429077,307.471863 
	C1023.650208,317.326965 1023.812683,326.719727 1024.016479,336.540161 
z"/>
<path fill="#5488DF" opacity="1.000000" stroke="none" 
	d="
M527.802979,452.984924 
	C510.457764,457.785248 494.259521,454.473267 480.389496,445.032440 
	C471.448853,438.946960 465.012024,429.245117 461.941132,417.976837 
	C458.594360,405.696411 459.473053,393.702515 463.155151,381.808777 
	C464.052734,378.909424 465.952118,376.163177 467.915405,373.778290 
	C475.909241,364.067993 485.147064,356.599335 497.667542,352.540771 
	C507.865631,349.235016 517.917480,349.080444 527.411865,351.557526 
	C534.891602,353.508942 541.947876,358.813477 547.984680,364.026917 
	C552.960266,368.323853 556.052917,374.758179 560.185364,380.086029 
	C564.564758,385.732147 564.290649,392.700775 564.703491,398.978882 
	C565.756897,415.002655 561.148254,429.714355 548.670410,440.468018 
	C542.697998,445.615112 535.090271,448.864716 527.802979,452.984924 
M521.911194,353.967010 
	C516.097900,353.919617 510.163818,353.088928 504.492706,353.963501 
	C482.614807,357.337372 464.772888,375.953522 462.911865,396.639648 
	C460.759064,420.569153 473.543732,440.887848 495.874481,449.027191 
	C527.566406,460.578522 562.386658,435.931519 562.027100,402.201996 
	C561.782104,379.230896 546.284790,360.275818 521.911194,353.967010 
z"/>
<path fill="#5388DD" opacity="1.000000" stroke="none" 
	d="
M756.264954,438.215820 
	C746.380310,449.411621 734.250061,453.909790 719.718933,454.239746 
	C710.621521,454.446350 701.888367,454.191833 693.810425,449.998383 
	C680.183411,442.924255 671.017334,432.198944 666.728760,417.084625 
	C663.004333,403.958679 664.290710,391.044769 669.844055,379.446808 
	C675.369446,367.907288 684.465576,358.456085 697.350159,354.057617 
	C706.579041,350.907074 715.584229,347.188171 725.875122,349.861969 
	C742.626404,354.214233 755.672180,362.716064 764.031311,378.484222 
	C767.266357,384.586517 769.706970,390.899750 769.557739,397.242188 
	C769.262634,409.790131 769.471924,422.874023 760.184448,433.261475 
	C758.862732,434.739777 757.734009,436.390625 756.264954,438.215820 
M668.633667,393.450500 
	C661.611206,430.104767 695.783569,459.197876 728.812561,450.644104 
	C749.134949,445.381012 764.069519,429.218811 766.151184,409.311920 
	C768.778625,384.185669 757.369629,366.998901 737.928894,357.487091 
	C709.269775,343.464966 675.827698,360.855072 668.633667,393.450500 
z"/>
<path fill="#5388DD" opacity="1.000000" stroke="none" 
	d="
M255.145462,400.338196 
	C257.147949,392.421814 258.260468,384.614807 261.191711,377.563965 
	C266.671783,364.382324 277.849701,357.555145 290.883667,352.696442 
	C300.742950,349.021149 310.719208,349.091492 320.219086,351.446045 
	C327.428864,353.232971 334.384766,357.640900 340.418732,362.240265 
	C352.657257,371.568970 358.867950,384.252838 359.090912,399.975922 
	C359.280914,413.374207 356.941589,425.869263 347.851990,436.074341 
	C338.092133,447.031921 326.300873,454.282135 310.977051,455.086029 
	C295.481873,455.898956 282.264221,451.205048 271.146179,440.584351 
	C259.833588,429.777771 254.906647,416.285980 255.145462,400.338196 
M275.384125,364.818604 
	C266.516693,372.301117 261.147522,381.765320 258.914459,393.155060 
	C253.750824,419.492584 270.691528,447.449951 300.565948,451.796631 
	C337.432404,457.160675 366.056000,420.863983 353.659576,385.493347 
	C342.805969,354.524872 302.300446,341.977020 275.384125,364.818604 
z"/>
<path fill="#5287DD" opacity="1.000000" stroke="none" 
	d="
M1020.461548,595.189636 
	C1020.363892,596.192505 1020.266296,597.195435 1020.063965,598.906006 
	C1019.980713,600.074829 1020.002136,600.536011 1020.023499,600.997131 
	C1014.404175,657.029541 993.026306,705.641541 951.996887,744.906006 
	C924.900635,770.836487 892.428223,787.003357 856.538513,796.820679 
	C853.978455,797.520996 851.380310,798.082153 848.509644,798.312561 
	C850.478882,796.644348 852.738342,795.371643 854.997864,794.098938 
	C857.376770,793.722900 859.755737,793.346924 862.895020,792.974976 
	C864.437012,792.344727 865.218567,791.710388 866.000183,791.076050 
	C866.445984,791.050720 866.891724,791.025391 868.047241,790.996948 
	C870.498840,790.344604 872.240662,789.695190 873.982483,789.045776 
	C874.487244,788.767334 874.992065,788.488892 876.049316,788.085327 
	C877.058716,787.665710 877.515686,787.371094 877.972656,787.076416 
	C878.849609,786.887390 879.726562,786.698425 881.112854,786.235840 
	C882.073792,785.663818 882.525452,785.365479 882.977051,785.067200 
	C887.376831,783.369080 891.776489,781.670959 896.884521,779.953674 
	C898.392639,779.301025 899.192383,778.667542 899.992188,778.034058 
	C903.084900,776.357483 906.177551,774.680908 909.854370,772.892334 
	C910.704712,772.597168 910.889038,772.352356 910.991516,772.045959 
	C920.870544,764.990295 930.867920,758.092529 940.579407,750.813354 
	C945.546936,747.089905 950.002563,742.683533 955.142334,738.152588 
	C956.715332,736.467712 957.835632,735.216125 958.955994,733.964478 
	C958.955994,733.964478 958.994019,733.482483 959.329956,733.199341 
	C960.111084,732.293396 960.556335,731.670532 961.001587,731.047668 
	C963.246216,728.559937 965.490845,726.072144 968.167114,723.153809 
	C969.390137,721.814636 970.181519,720.906067 970.972961,719.997559 
	C975.228577,713.873596 979.484192,707.749634 984.208252,701.268799 
	C985.109924,700.269592 985.543091,699.627136 985.976318,698.984680 
	C990.298401,690.233337 994.620544,681.481995 999.286194,672.333069 
	C999.765076,671.293884 999.900391,670.652283 1000.035767,670.010681 
	C1001.325134,667.562988 1002.614563,665.115356 1004.225464,662.119812 
	C1004.692810,660.721375 1004.838623,659.870789 1004.984497,659.020203 
	C1006.224365,655.245239 1007.464233,651.470215 1009.083252,647.229370 
	C1009.730774,646.551758 1009.896545,646.278015 1009.959717,645.942078 
	C1009.966614,645.512634 1009.973450,645.083130 1010.240295,644.152832 
	C1010.649353,643.071045 1010.798462,642.490112 1010.947510,641.909119 
	C1010.969666,641.176819 1010.991882,640.444458 1011.248413,639.203064 
	C1011.348206,638.138123 1011.213684,637.582336 1011.079102,637.026489 
	C1011.072998,636.570190 1011.066833,636.113953 1011.354858,635.169434 
	C1012.080750,633.766663 1012.512329,632.851990 1012.943909,631.937378 
	C1012.967224,630.560791 1012.990540,629.184204 1013.267822,627.225342 
	C1013.674072,626.093384 1013.826416,625.543640 1013.978760,624.993896 
	C1013.997986,623.280701 1014.017212,621.567566 1014.416626,619.355896 
	C1015.842346,614.875610 1016.888000,610.893799 1017.933594,606.911987 
	C1017.954407,604.893066 1017.975220,602.874084 1018.289551,600.150513 
	C1019.110168,596.985474 1019.637207,594.525085 1020.161865,592.460205 
	C1020.260132,593.633728 1020.360840,594.411682 1020.461548,595.189636 
z"/>
<path fill="#5087DD" opacity="1.000000" stroke="none" 
	d="
M1020.164307,592.064636 
	C1019.637207,594.525085 1019.110168,596.985474 1018.303711,599.717529 
	C1018.991211,584.451599 1019.962097,568.914429 1020.918091,553.376282 
	C1020.999817,552.047852 1020.990356,550.713501 1021.010742,549.381714 
	C1021.349792,527.265320 1021.682861,505.148895 1022.039978,483.032837 
	C1022.053040,482.220642 1022.296692,481.412170 1022.735352,480.315674 
	C1023.182312,488.174866 1023.326782,496.320343 1023.776978,504.762817 
	C1023.763794,520.440613 1023.444885,535.821411 1023.255859,551.665466 
	C1023.241150,556.440369 1023.096680,560.752075 1022.702515,565.842529 
	C1022.372864,570.099182 1022.292847,573.576904 1022.212891,577.054688 
	C1022.132019,577.788147 1022.051147,578.521606 1021.717163,579.913330 
	C1021.503052,582.116028 1021.542114,583.660339 1021.581055,585.204712 
	C1021.398804,587.180054 1021.216492,589.155396 1020.805298,591.561157 
	C1020.576355,591.991577 1020.164307,592.064636 1020.164307,592.064636 
z"/>
<path fill="#5287DD" opacity="1.000000" stroke="none" 
	d="
M844.426697,799.208496 
	C838.380188,800.620422 832.400635,802.559326 826.273621,803.337280 
	C812.521057,805.083313 798.695312,806.252686 784.451233,807.234863 
	C784.004517,806.243408 784.005920,805.674011 784.007324,805.104614 
	C785.726440,805.078979 787.445557,805.053284 789.878540,805.317871 
	C794.720642,805.088684 798.848938,804.569275 802.977234,804.049805 
	C806.703552,803.698547 810.429932,803.347290 814.908203,802.992310 
	C816.432800,802.677246 817.205383,802.365906 817.977966,802.054565 
	C819.686462,802.025818 821.395020,801.997070 823.752319,801.881470 
	C824.679016,801.622070 824.873779,801.382080 824.985352,801.074707 
	C826.417114,800.729797 827.848877,800.384827 829.906250,800.312500 
	C832.354126,800.082275 834.176270,799.579529 835.998474,799.076782 
	C837.425903,798.748108 838.853394,798.419495 840.894531,798.336060 
	C842.481079,798.790283 843.453918,798.999390 844.426697,799.208496 
z"/>
<path fill="#5087DD" opacity="1.000000" stroke="none" 
	d="
M783.541504,805.074707 
	C784.005920,805.674011 784.004517,806.243408 784.008789,807.096924 
	C781.910339,807.532166 779.806213,807.683289 776.987671,807.529785 
	C774.534119,807.444397 772.795105,807.663696 771.056091,807.883057 
	C765.263916,808.184204 759.471741,808.485352 752.887939,808.470703 
	C743.377991,808.091858 734.659607,808.028870 725.941223,807.965942 
	C728.781311,807.319336 731.599182,806.271362 734.466309,806.112305 
	C739.920288,805.809631 745.404785,806.115417 750.872437,805.988403 
	C761.608337,805.739136 772.341431,805.366394 783.541504,805.074707 
z"/>
<path fill="#5087DD" opacity="1.000000" stroke="none" 
	d="
M715.985291,809.015381 
	C715.556824,809.074158 715.128357,809.132874 713.979797,809.099365 
	C712.451843,809.025757 711.644043,809.044373 710.836182,809.062988 
	C705.139404,809.326843 699.442627,809.590759 693.062622,809.557434 
	C691.275574,809.456543 690.171753,809.652893 689.067993,809.849243 
	C687.988037,809.972473 686.908020,810.095703 685.425781,810.138672 
	C686.085327,809.051331 687.140198,807.178833 688.210144,807.170227 
	C699.615967,807.077942 711.024231,807.281128 722.327026,807.698242 
	C720.143250,808.333984 718.064270,808.674683 715.985291,809.015381 
z"/>
<path fill="#5287DD" opacity="1.000000" stroke="none" 
	d="
M716.344727,809.200195 
	C718.064270,808.674683 720.143250,808.333984 722.634644,807.984497 
	C723.770996,807.972412 724.494995,807.969238 725.580078,807.965942 
	C734.659607,808.028870 743.377991,808.091858 752.429443,808.346436 
	C749.529175,808.822083 746.298462,809.309875 743.062073,809.351257 
	C734.277405,809.463623 725.490234,809.386780 716.344727,809.200195 
z"/>
<path fill="#5087DD" opacity="1.000000" stroke="none" 
	d="
M844.793396,799.223267 
	C843.453918,798.999390 842.481079,798.790283 841.261414,798.307739 
	C845.419495,796.733582 849.824402,795.432922 854.613647,794.115601 
	C852.738342,795.371643 850.478882,796.644348 848.123779,798.230286 
	C847.072205,798.775024 846.116150,799.006531 844.793396,799.223267 
z"/>
<path fill="#5087DD" opacity="1.000000" stroke="none" 
	d="
M1017.566101,607.027222 
	C1016.888000,610.893799 1015.842346,614.875610 1014.433960,618.928101 
	C1015.113647,615.046631 1016.156067,611.094482 1017.566101,607.027222 
z"/>
<path fill="#5087DD" opacity="1.000000" stroke="none" 
	d="
M802.527222,804.031982 
	C798.848938,804.569275 794.720642,805.088684 790.308350,805.328979 
	C794.041931,804.704590 798.059509,804.359375 802.527222,804.031982 
z"/>
<path fill="#5087DD" opacity="1.000000" stroke="none" 
	d="
M680.263062,810.805664 
	C676.552979,810.488953 673.247803,810.243347 669.499084,809.990784 
	C673.597229,809.882751 678.138916,809.781677 682.850098,809.999268 
	C682.235718,810.504333 681.451843,810.690613 680.263062,810.805664 
z"/>
<path fill="#5388DD" opacity="1.000000" stroke="none" 
	d="
M9.915630,608.634033 
	C9.433035,608.997070 8.973081,608.998535 8.166089,609.000671 
	C7.526194,607.566589 7.233337,606.131775 7.034776,604.335083 
	C8.065472,605.406311 9.001872,606.839355 9.915630,608.634033 
z"/>
<path fill="#5087DD" opacity="1.000000" stroke="none" 
	d="
M1022.739990,467.316376 
	C1023.036743,470.382599 1023.034790,473.721222 1023.035034,477.514343 
	C1022.838562,474.508820 1022.639954,471.048798 1022.739990,467.316376 
z"/>
<path fill="#5287DD" opacity="1.000000" stroke="none" 
	d="
M6.697127,600.110535 
	C6.457268,598.011108 6.217410,595.911621 6.267475,593.406982 
	C6.557398,593.001709 7.000633,593.002441 7.000633,593.002441 
	C7.007276,593.439026 7.013918,593.875671 7.117365,594.865479 
	C7.408713,595.699829 7.668370,595.893799 7.993141,596.000671 
	C7.993141,596.000671 8.000483,596.000000 8.004496,596.259888 
	C8.016634,596.690430 8.024759,596.861084 8.032884,597.031799 
	C8.020457,597.774292 8.008032,598.516724 7.666656,599.650696 
	C7.124180,600.064941 6.910654,600.087769 6.697127,600.110535 
z"/>
<path fill="#5087DD" opacity="1.000000" stroke="none" 
	d="
M835.612671,799.052368 
	C834.176270,799.579529 832.354126,800.082275 830.278442,800.318909 
	C831.758911,799.711182 833.492859,799.369629 835.612671,799.052368 
z"/>
<path fill="#5087DD" opacity="1.000000" stroke="none" 
	d="
M958.585083,733.981812 
	C957.835632,735.216125 956.715332,736.467712 955.309814,737.857056 
	C956.087769,736.662781 957.150940,735.330933 958.585083,733.981812 
z"/>
<path fill="#5087DD" opacity="1.000000" stroke="none" 
	d="
M873.596680,789.031067 
	C872.240662,789.695190 870.498840,790.344604 868.381958,790.985474 
	C869.741577,790.323425 871.476196,789.669861 873.596680,789.031067 
z"/>
<path fill="#5087DD" opacity="1.000000" stroke="none" 
	d="
M970.606323,720.008179 
	C970.181519,720.906067 969.390137,721.814636 968.325806,722.855286 
	C968.781860,721.997864 969.510803,721.008362 970.606323,720.008179 
z"/>
<path fill="#5087DD" opacity="1.000000" stroke="none" 
	d="
M865.649658,791.059021 
	C865.218567,791.710388 864.437012,792.344727 863.299438,792.967896 
	C863.728699,792.318542 864.513977,791.680237 865.649658,791.059021 
z"/>
<path fill="#5087DD" opacity="1.000000" stroke="none" 
	d="
M899.642578,778.027100 
	C899.192383,778.667542 898.392639,779.301025 897.266541,779.935486 
	C897.724548,779.297668 898.508789,778.658875 899.642578,778.027100 
z"/>
<path fill="#5087DD" opacity="1.000000" stroke="none" 
	d="
M1012.610718,632.014404 
	C1012.512329,632.851990 1012.080750,633.766663 1011.371216,634.827515 
	C1011.488037,634.013000 1011.882812,633.052246 1012.610718,632.014404 
z"/>
<path fill="#5388DD" opacity="1.000000" stroke="none" 
	d="
M7.003728,592.585693 
	C7.000633,593.002441 6.557398,593.001709 6.335964,593.001160 
	C5.931232,591.653259 5.747935,590.305969 5.579185,588.550720 
	C5.820961,588.114380 6.048189,588.085938 6.617380,588.030457 
	C6.975170,589.391907 6.990997,590.780396 7.003728,592.585693 
z"/>
<path fill="#5087DD" opacity="1.000000" stroke="none" 
	d="
M960.682617,731.076904 
	C960.556335,731.670532 960.111084,732.293396 959.354004,732.958801 
	C959.482666,732.369629 959.923218,731.737854 960.682617,731.076904 
z"/>
<path fill="#5087DD" opacity="1.000000" stroke="none" 
	d="
M985.660034,699.032104 
	C985.543091,699.627136 985.109924,700.269592 984.361328,700.956543 
	C984.478455,700.360596 984.911133,699.720093 985.660034,699.032104 
z"/>
<path fill="#5087DD" opacity="1.000000" stroke="none" 
	d="
M999.786987,670.172974 
	C999.900391,670.652283 999.765076,671.293884 999.345947,671.968445 
	C999.220825,671.446045 999.379517,670.890625 999.786987,670.172974 
z"/>
<path fill="#5087DD" opacity="1.000000" stroke="none" 
	d="
M1010.664551,641.969910 
	C1010.798462,642.490112 1010.649353,643.071045 1010.251648,643.830933 
	C1010.129211,643.350037 1010.255432,642.690369 1010.664551,641.969910 
z"/>
<path fill="#5087DD" opacity="1.000000" stroke="none" 
	d="
M1004.725098,659.222595 
	C1004.838623,659.870789 1004.692810,660.721375 1004.293396,661.778198 
	C1004.181763,661.131226 1004.323792,660.278137 1004.725098,659.222595 
z"/>
<path fill="#5087DD" opacity="1.000000" stroke="none" 
	d="
M817.644836,802.037842 
	C817.205383,802.365906 816.432800,802.677246 815.325562,802.977905 
	C815.764587,802.651855 816.538147,802.336487 817.644836,802.037842 
z"/>
<path fill="#5388DD" opacity="1.000000" stroke="none" 
	d="
M6.660434,600.441284 
	C6.910654,600.087769 7.124180,600.064941 7.658951,600.021851 
	C7.813646,600.573242 7.647097,601.144836 7.221579,601.879761 
	C6.849653,601.619385 6.736697,601.195679 6.660434,600.441284 
z"/>
<path fill="#5087DD" opacity="1.000000" stroke="none" 
	d="
M877.682861,787.074097 
	C877.515686,787.371094 877.058716,787.665710 876.316040,787.975281 
	C876.484619,787.684082 876.938904,787.377869 877.682861,787.074097 
z"/>
<path fill="#5087DD" opacity="1.000000" stroke="none" 
	d="
M882.687744,785.068970 
	C882.525452,785.365479 882.073792,785.663818 881.339111,785.983154 
	C881.503540,785.693115 881.950989,785.381958 882.687744,785.068970 
z"/>
<path fill="#5087DD" opacity="1.000000" stroke="none" 
	d="
M1011.053833,637.351685 
	C1011.213684,637.582336 1011.348206,638.138123 1011.269836,638.837402 
	C1011.047424,638.546143 1011.037903,638.111511 1011.053833,637.351685 
z"/>
<path fill="#5087DD" opacity="1.000000" stroke="none" 
	d="
M1013.739136,625.162598 
	C1013.826416,625.543640 1013.674072,626.093384 1013.286194,626.812683 
	C1013.200256,626.431885 1013.349854,625.881592 1013.739136,625.162598 
z"/>
<path fill="#5087DD" opacity="1.000000" stroke="none" 
	d="
M910.775635,772.135498 
	C910.889038,772.352356 910.704712,772.597168 910.224426,772.871826 
	C910.107910,772.653564 910.291077,772.407471 910.775635,772.135498 
z"/>
<path fill="#5087DD" opacity="1.000000" stroke="none" 
	d="
M1009.753479,646.067627 
	C1009.896545,646.278015 1009.730774,646.551758 1009.247925,646.878540 
	C1009.115845,646.669861 1009.287109,646.402954 1009.753479,646.067627 
z"/>
<path fill="#5087DD" opacity="1.000000" stroke="none" 
	d="
M824.764587,801.155396 
	C824.873779,801.382080 824.679016,801.622070 824.179321,801.876221 
	C824.077026,801.655579 824.272522,801.414978 824.764587,801.155396 
z"/>
<path fill="#5388DD" opacity="1.000000" stroke="none" 
	d="
M8.186073,596.927246 
	C8.024759,596.861084 8.016634,596.690430 8.002963,596.263550 
	C8.111365,596.279114 8.225314,596.550903 8.186073,596.927246 
z"/>
<path fill="#5388DD" opacity="1.000000" stroke="none" 
	d="
M7.883353,595.782898 
	C7.668370,595.893799 7.408713,595.699829 7.113725,595.192993 
	C7.320345,595.098328 7.573774,595.297607 7.883353,595.782898 
z"/>
<path fill="#5388DD" opacity="1.000000" stroke="none" 
	d="
M7.158401,585.877869 
	C6.998075,585.954712 7.001965,585.498901 7.004507,585.271545 
	C7.172126,585.196533 7.350174,585.338318 7.490090,585.511047 
	C7.514758,585.541504 7.379913,585.701050 7.158401,585.877869 
z"/>
<path fill="#B5D7FB" opacity="1.000000" stroke="none" 
	d="
M1022.459595,576.758972 
	C1022.292847,573.576904 1022.372864,570.099182 1022.706482,566.306091 
	C1022.875549,569.481628 1022.790955,572.972412 1022.459595,576.758972 
z"/>
<path fill="#5287DD" opacity="1.000000" stroke="none" 
	d="
M771.328857,808.088745 
	C772.795105,807.663696 774.534119,807.444397 776.545410,807.423950 
	C775.079041,807.846741 773.340271,808.070679 771.328857,808.088745 
z"/>
<path fill="#B5D7FB" opacity="1.000000" stroke="none" 
	d="
M1021.858032,585.033325 
	C1021.542114,583.660339 1021.503052,582.116028 1021.714111,580.282593 
	C1022.021057,581.616333 1022.078003,583.239136 1021.858032,585.033325 
z"/>
<path fill="#5287DD" opacity="1.000000" stroke="none" 
	d="
M689.301147,810.032776 
	C690.171753,809.652893 691.275574,809.456543 692.607910,809.453125 
	C691.735718,809.836060 690.634949,810.026184 689.301147,810.032776 
z"/>
<path fill="#BFDDFA" opacity="1.000000" stroke="none" 
	d="
M2.869419,559.161072 
	C3.387636,560.422058 3.637115,561.866699 3.768844,563.680298 
	C3.300956,562.481140 2.950818,560.912903 2.869419,559.161072 
z"/>
<path fill="#B5D7FB" opacity="1.000000" stroke="none" 
	d="
M1020.161865,592.460205 
	C1020.164307,592.064636 1020.576355,591.991577 1020.785645,591.990112 
	C1020.997681,592.977112 1021.000488,593.965637 1020.732422,595.071899 
	C1020.360840,594.411682 1020.260132,593.633728 1020.161865,592.460205 
z"/>
<path fill="#5287DD" opacity="1.000000" stroke="none" 
	d="
M711.080811,809.223389 
	C711.644043,809.044373 712.451843,809.025757 713.662842,809.019287 
	C713.152466,809.148926 712.238892,809.266357 711.080811,809.223389 
z"/>
<path fill="#B5D7FB" opacity="1.000000" stroke="none" 
	d="
M1020.240479,600.857178 
	C1020.002136,600.536011 1019.980713,600.074829 1020.075928,599.284790 
	C1020.280884,599.543030 1020.369141,600.130188 1020.240479,600.857178 
z"/>
<path fill="#9EC6F7" opacity="1.000000" stroke="none" 
	d="
M294.745911,2.751400 
	C293.190796,3.216682 291.372345,3.428608 289.276398,3.416118 
	C290.826813,2.960483 292.654663,2.729263 294.745911,2.751400 
z"/>
<path fill="#9EC6F7" opacity="1.000000" stroke="none" 
	d="
M265.773224,3.810342 
	C264.484253,4.277214 262.962524,4.496308 261.062744,4.538742 
	C262.303314,4.095576 263.921875,3.829071 265.773224,3.810342 
z"/>
<path fill="#B5D7FB" opacity="1.000000" stroke="none" 
	d="
M5.342118,259.109283 
	C5.578005,260.415985 5.564490,261.934631 5.299713,263.735291 
	C5.063207,262.451935 5.077961,260.886566 5.342118,259.109283 
z"/>
<path fill="#9EC6F7" opacity="1.000000" stroke="none" 
	d="
M256.807495,4.329433 
	C254.695602,4.664145 252.241867,4.822068 249.336258,4.872981 
	C251.411453,4.561529 253.938553,4.357087 256.807495,4.329433 
z"/>
<path fill="#9EC6F7" opacity="1.000000" stroke="none" 
	d="
M243.820633,4.798580 
	C243.118805,5.251673 242.238113,5.475613 241.024933,5.531008 
	C241.675537,5.098117 242.658661,4.833773 243.820633,4.798580 
z"/>
<path fill="#B5D7FB" opacity="1.000000" stroke="none" 
	d="
M2.914922,303.112610 
	C3.260104,303.556244 3.363047,304.133362 3.267377,304.860352 
	C2.936737,304.422180 2.804710,303.834137 2.914922,303.112610 
z"/>
<path fill="#9EC6F7" opacity="1.000000" stroke="none" 
	d="
M231.802689,5.708296 
	C230.969467,6.006011 229.897568,6.085880 228.426346,6.101830 
	C229.206024,5.855424 230.385010,5.672937 231.802689,5.708296 
z"/>
<path fill="#9EC6F7" opacity="1.000000" stroke="none" 
	d="
M274.921448,3.631718 
	C274.625580,3.905500 274.144775,3.993196 273.302246,4.000565 
	C273.539185,3.762037 274.137817,3.603834 274.921448,3.631718 
z"/>
<path fill="#B5D7FB" opacity="1.000000" stroke="none" 
	d="
M3.884031,283.090240 
	C4.100669,283.187134 4.134198,283.351746 4.096262,283.758118 
	C3.850915,283.830170 3.660105,283.673004 3.517026,283.480408 
	C3.487374,283.440521 3.635001,283.268921 3.884031,283.090240 
z"/>
<path fill="#B5D7FB" opacity="1.000000" stroke="none" 
	d="
M2.623326,316.036438 
	C2.816469,316.117950 2.860731,316.311859 2.823808,316.793152 
	C2.606166,316.884674 2.444847,316.700287 2.346498,316.486908 
	C2.311136,316.410187 2.427379,316.263580 2.623326,316.036438 
z"/>
<path fill="#B5D7FB" opacity="1.000000" stroke="none" 
	d="
M3.423543,297.022156 
	C3.606045,297.103424 3.659633,297.304840 3.597645,297.797272 
	C3.381764,297.884064 3.258281,297.686920 3.192137,297.472137 
	C3.164162,297.381317 3.256805,297.253387 3.423543,297.022156 
z"/>
<path fill="#B5D7FB" opacity="1.000000" stroke="none" 
	d="
M3.799214,288.066010 
	C4.006937,288.158264 4.044995,288.336426 4.000582,288.775269 
	C3.763930,288.853119 3.587346,288.683136 3.469683,288.479156 
	C3.435779,288.420380 3.571555,288.263702 3.799214,288.066010 
z"/>
<path fill="#BFDDFA" opacity="1.000000" stroke="none" 
	d="
M1021.301514,253.739426 
	C1020.598633,248.654312 1020.179504,243.304337 1019.825317,237.492432 
	C1020.455139,242.511871 1021.020203,247.993210 1021.301514,253.739426 
z"/>
<path fill="#BFDDFA" opacity="1.000000" stroke="none" 
	d="
M1023.266968,287.729004 
	C1022.681763,284.924225 1022.384521,281.836914 1022.215698,278.308350 
	C1022.747742,281.060211 1023.151367,284.253357 1023.266968,287.729004 
z"/>
<path fill="#B5D7FB" opacity="1.000000" stroke="none" 
	d="
M755.013306,3.128128 
	C753.007019,3.456008 750.808777,3.495687 748.298157,3.292399 
	C750.264343,2.979598 752.542847,2.909763 755.013306,3.128128 
z"/>
<path fill="#B5D7FB" opacity="1.000000" stroke="none" 
	d="
M802.859253,5.324916 
	C800.919250,5.555723 798.743774,5.531079 796.281982,5.234601 
	C798.204956,4.998334 800.414368,5.033900 802.859253,5.324916 
z"/>
<path fill="#BFDDFA" opacity="1.000000" stroke="none" 
	d="
M1022.180908,267.821716 
	C1021.726562,266.844238 1021.532532,265.675507 1021.512390,264.169769 
	C1021.937988,265.098663 1022.189575,266.364594 1022.180908,267.821716 
z"/>
<path fill="#B5D7FB" opacity="1.000000" stroke="none" 
	d="
M780.051697,4.033905 
	C779.311951,4.357244 778.412048,4.449827 777.249756,4.311243 
	C777.955383,3.987767 778.923462,3.895457 780.051697,4.033905 
z"/>
<path fill="#B5D7FB" opacity="1.000000" stroke="none" 
	d="
M808.799438,5.711659 
	C807.912476,5.963680 806.815002,5.967710 805.329346,5.825765 
	C806.157043,5.607750 807.373047,5.535709 808.799438,5.711659 
z"/>
<path fill="#BFDDFA" opacity="1.000000" stroke="none" 
	d="
M1021.479614,258.931458 
	C1021.271973,258.872284 1021.194824,258.692902 1021.187195,258.228760 
	C1021.374512,258.233063 1021.492249,258.522125 1021.479614,258.931458 
z"/>
<path fill="#FBFDFE" opacity="1.000000" stroke="none" 
	d="
M522.337524,354.072754 
	C546.284790,360.275818 561.782104,379.230896 562.027100,402.201996 
	C562.386658,435.931519 527.566406,460.578522 495.874481,449.027191 
	C473.543732,440.887848 460.759064,420.569153 462.911865,396.639648 
	C464.772888,375.953522 482.614807,357.337372 504.492706,353.963501 
	C510.163818,353.088928 516.097900,353.919617 522.337524,354.072754 
z"/>
<path fill="#FBFDFE" opacity="1.000000" stroke="none" 
	d="
M668.697998,393.026306 
	C675.827698,360.855072 709.269775,343.464966 737.928894,357.487091 
	C757.369629,366.998901 768.778625,384.185669 766.151184,409.311920 
	C764.069519,429.218811 749.134949,445.381012 728.812561,450.644104 
	C695.783569,459.197876 661.611206,430.104767 668.697998,393.026306 
z"/>
<path fill="#FBFDFE" opacity="1.000000" stroke="none" 
	d="
M275.644531,364.571198 
	C302.300446,341.977020 342.805969,354.524872 353.659576,385.493347 
	C366.056000,420.863983 337.432404,457.160675 300.565948,451.796631 
	C270.691528,447.449951 253.750824,419.492584 258.914459,393.155060 
	C261.147522,381.765320 266.516693,372.301117 275.644531,364.571198 
z"/>
</svg>